<svg width="80" height="30" viewBox="0 0 80 30" fill="none" xmlns="http://www.w3.org/2000/svg">
<path d="M39.2442 24.4117C38.3932 24.4117 37.6132 24.2788 36.9041 24.0128C36.1772 23.7646 35.5745 23.3658 35.0958 22.8162C34.6171 22.2666 34.298 21.5309 34.1385 20.609C34.103 20.4672 34.1385 20.3963 34.2448 20.3963C34.3158 20.3963 34.3689 20.4583 34.4044 20.5824C34.5994 21.5752 35.0869 22.3818 35.867 23.0023C36.6293 23.6228 37.5068 23.9331 38.4996 23.9331C39.4215 23.9331 40.3522 23.6849 41.2918 23.1885C42.2314 22.7098 43.1444 22.045 44.0308 21.1941C44.9172 20.3608 45.7505 19.4124 46.5305 18.3487C47.3637 17.2141 48.1172 16.0352 48.7908 14.8119C49.4822 13.5887 50.147 12.3565 50.7853 11.1156C50.5548 11.4524 50.3155 11.7981 50.0673 12.1527C49.8191 12.5072 49.5709 12.8352 49.3227 13.1366C48.844 13.7393 48.2945 14.3598 47.674 14.998C47.0712 15.6185 46.4684 16.1504 45.8657 16.5936C45.2629 17.0191 44.7134 17.2318 44.217 17.2318C43.8269 17.2318 43.499 17.1254 43.233 16.9127C42.9849 16.7 42.8608 16.372 42.8608 15.9288C42.8608 15.5388 42.9317 15.1842 43.0735 14.8651C43.2153 14.5283 43.3749 14.218 43.5522 13.9344C43.8535 13.438 44.217 12.9327 44.6424 12.4186C45.0679 11.9045 45.4402 11.4701 45.7593 11.1156C45.9543 10.8851 46.0518 10.699 46.0518 10.5571C46.0518 10.3799 45.9543 10.2912 45.7593 10.2912C45.5289 10.2912 45.2363 10.433 44.8818 10.7167C44.4563 11.0181 44.022 11.3815 43.5787 11.807C43.1355 12.2147 42.7189 12.6047 42.3289 12.977C41.9389 13.3493 41.6198 13.6418 41.3716 13.8546C41.2475 13.9432 41.1589 13.9875 41.1057 13.9875C41.0348 13.9875 40.9993 13.9521 40.9993 13.8812C40.9993 13.7748 41.0613 13.6684 41.1854 13.5621C41.54 13.2607 41.9123 12.9061 42.3023 12.4984C42.7101 12.0906 43.109 11.6917 43.499 11.3017C43.9067 10.894 44.279 10.566 44.6158 10.3178C44.8818 10.1051 45.1566 9.95438 45.4402 9.86573C45.7239 9.75937 45.9898 9.70618 46.238 9.70618C46.6635 9.70618 47.018 9.83028 47.3017 10.0785C47.6031 10.3267 47.7537 10.6724 47.7537 11.1156C47.7537 11.4524 47.6651 11.807 47.4878 12.1793C47.2751 12.6225 47.0003 13.0657 46.6635 13.5089C46.3443 13.9344 46.0341 14.351 45.7327 14.7587C45.5023 15.0956 45.3338 15.3703 45.2275 15.5831C45.1211 15.7958 45.0679 15.9465 45.0679 16.0352C45.0679 16.1947 45.1388 16.2745 45.2807 16.2745C45.4225 16.2745 45.6264 16.1947 45.8923 16.0352C46.1759 15.8756 46.4596 15.6717 46.7432 15.4235C47.2219 14.9803 47.7449 14.4396 48.3122 13.8014C48.8972 13.1455 49.4645 12.4629 50.0141 11.7538C50.5637 11.0447 51.0423 10.3887 51.4501 9.78596C51.6983 9.20093 51.9642 8.68681 52.2478 8.2436C52.5315 7.8004 52.8949 7.5788 53.3381 7.5788C53.5863 7.5788 53.7813 7.64971 53.9232 7.79154C54.0827 7.93336 54.1625 8.07519 54.1625 8.21701C54.1625 8.34111 54.1093 8.44748 54.0029 8.53612C53.8966 8.60703 53.7193 8.63363 53.4711 8.6159C53.2761 8.58044 53.0545 8.6159 52.8063 8.72227C52.5581 8.82864 52.301 9.16547 52.0351 9.73277C51.7515 10.371 51.4767 11.1156 51.2107 11.9665C50.9625 12.8175 50.6612 13.7305 50.3066 14.7055C49.952 15.6806 49.4822 16.6822 48.8972 17.7105C48.3299 18.7564 47.5676 19.7847 46.6103 20.7952C45.6707 21.788 44.5538 22.6389 43.2596 23.348C41.9832 24.0572 40.6447 24.4117 39.2442 24.4117Z" fill="white"/>
<path d="M35.4327 17.285C34.6704 17.285 34.1563 17.1432 33.8904 16.8595C33.6245 16.5581 33.4915 16.2301 33.4915 15.8756C33.4915 15.4147 33.6688 14.9271 34.0233 14.413C34.2361 14.1116 34.4754 13.7748 34.7413 13.4025C35.0073 13.0125 35.2555 12.6491 35.4859 12.3122C35.7164 11.9754 35.8759 11.736 35.9646 11.5942C36.0887 11.4169 36.1596 11.3017 36.1773 11.2485C36.2128 11.1776 36.2305 11.1067 36.2305 11.0358C36.2305 10.9294 36.1596 10.8319 36.0178 10.7433C35.8937 10.6369 35.6809 10.5837 35.3796 10.5837C35.2909 10.5837 35.2111 10.5926 35.1402 10.6103C35.087 10.6103 35.025 10.6103 34.9541 10.6103C34.8123 10.6103 34.7325 10.6014 34.7147 10.5837L34.635 10.6901C34.1386 11.346 33.6067 11.9931 33.0394 12.6313C32.4721 13.2518 31.8516 13.828 31.178 14.3598C31.1071 14.413 31.0539 14.4396 31.0184 14.4396C30.9475 14.4396 30.912 14.4041 30.912 14.3332C30.912 14.1914 31.0184 14.0319 31.2312 13.8546C31.7807 13.3936 32.3214 12.8795 32.8533 12.3122C33.3851 11.7272 33.8638 11.1156 34.2893 10.4773C34.1297 10.371 34.0499 10.1582 34.0499 9.83913C34.0499 9.36047 34.2006 8.84635 34.502 8.29678C34.7147 7.92449 34.9452 7.6497 35.1934 7.47242C35.4593 7.27741 35.6898 7.1799 35.8848 7.1799C36.2571 7.1799 36.4432 7.4015 36.4432 7.84471C36.4432 8.12836 36.3369 8.48292 36.1241 8.9084C36.0355 9.12114 35.8582 9.39593 35.5923 9.73276C35.3441 10.0519 35.0959 10.2823 34.8477 10.4242C35.22 10.3001 35.6898 10.2203 36.2571 10.1848C36.8421 10.1316 37.3297 10.1051 37.7197 10.1051C37.9501 10.1051 38.2338 10.176 38.5706 10.3178C38.9075 10.4419 39.0759 10.6724 39.0759 11.0092C39.0759 11.2397 38.9695 11.4879 38.7568 11.7538C38.7036 11.8247 38.5618 11.9931 38.3313 12.259C38.1008 12.525 37.8438 12.8441 37.5601 13.2164C37.2942 13.5886 37.046 13.9609 36.8155 14.3332C36.5851 14.6701 36.3989 14.9803 36.2571 15.264C36.133 15.5476 36.071 15.7869 36.071 15.982C36.071 16.2656 36.2305 16.4074 36.5496 16.4074C36.9219 16.4074 37.4183 16.2301 38.0388 15.8756C38.6593 15.521 39.3241 15.069 40.0332 14.5194C40.7601 13.9521 41.4249 13.367 42.0276 12.7643C42.0985 12.6934 42.1606 12.6579 42.2138 12.6579C42.2847 12.6579 42.3201 12.7022 42.3201 12.7909C42.3201 12.8972 42.2758 12.9948 42.1872 13.0834C41.5667 13.7039 40.8753 14.3421 40.113 14.998C39.3684 15.6363 38.5884 16.177 37.7729 16.6202C36.9751 17.0634 36.1951 17.285 35.4327 17.285Z" fill="white"/>
<path d="M20.7416 17.3914C20.5643 17.3914 20.3516 17.3471 20.1034 17.2584C19.8552 17.1875 19.607 17.0457 19.3588 16.8329C19.5538 16.567 19.8375 16.2124 20.2098 15.7692C20.5643 15.3083 20.9455 14.8031 21.3532 14.2535C21.761 13.7039 22.1422 13.1543 22.4967 12.6048C22.2131 12.8884 21.9028 13.1898 21.566 13.5089C21.2292 13.828 20.8923 14.1205 20.5555 14.3864C20.4846 14.4574 20.4048 14.4928 20.3161 14.4928C20.2452 14.4928 20.2098 14.4574 20.2098 14.3864C20.2098 14.2978 20.2807 14.1914 20.4225 14.0673C20.9189 13.6241 21.4685 13.1189 22.0712 12.5516C22.6917 11.9665 23.1438 11.3726 23.4274 10.7699C23.5161 10.5572 23.5604 10.3621 23.5604 10.1849C23.5604 9.95439 23.5161 9.81257 23.4274 9.75938C23.3565 9.7062 23.3211 9.63528 23.3211 9.54664C23.3211 9.38709 23.4009 9.30731 23.5604 9.30731C23.6491 9.30731 23.72 9.32504 23.7731 9.3605C23.9682 9.44914 24.1543 9.61756 24.3316 9.86575C24.5089 10.1139 24.5975 10.4862 24.5975 10.9826C24.5975 11.2663 24.5621 11.5943 24.4911 11.9665C24.4202 12.3211 24.2961 12.7289 24.1188 13.1898C24.3848 12.8352 24.6507 12.4895 24.9166 12.1527C25.2003 11.8159 25.4573 11.5145 25.6878 11.2486C26.1665 10.699 26.6451 10.309 27.1238 10.0785C27.6202 9.83029 28.0634 9.7062 28.4534 9.7062C28.9143 9.7062 29.2866 9.83916 29.5703 10.1051C29.8539 10.371 29.9957 10.7167 29.9957 11.1422C29.9957 11.479 29.9071 11.8247 29.7298 12.1793C29.6766 12.3211 29.5525 12.5427 29.3575 12.8441C29.1625 13.1277 28.9498 13.438 28.7193 13.7748C28.4888 14.1117 28.2761 14.413 28.0811 14.679C27.8506 14.9626 27.6911 15.2108 27.6024 15.4235C27.5138 15.6186 27.4695 15.7781 27.4695 15.9022C27.4695 16.0795 27.567 16.1681 27.762 16.1681C28.0102 16.1681 28.3559 16.0352 28.7991 15.7692C29.065 15.6097 29.3664 15.3969 29.7032 15.131C30.0578 14.8474 30.4035 14.5637 30.7403 14.2801C31.0949 13.9787 31.3785 13.7305 31.5913 13.5355C31.6622 13.4646 31.7242 13.4291 31.7774 13.4291C31.8483 13.4291 31.8838 13.4734 31.8838 13.5621C31.8838 13.6684 31.8395 13.766 31.7508 13.8546C31.219 14.351 30.5985 14.8917 29.8894 15.4767C29.198 16.0618 28.5154 16.5138 27.8418 16.8329C27.2922 17.0989 26.7869 17.2318 26.326 17.2318C25.936 17.2318 25.6257 17.1343 25.3953 16.9393C25.1648 16.7266 25.0496 16.4252 25.0496 16.0352C25.0496 15.7515 25.1205 15.4147 25.2623 15.0247C25.4396 14.546 25.6878 14.0673 26.0069 13.5887C26.3437 13.11 26.6894 12.6579 27.044 12.2325C27.4163 11.7893 27.7354 11.417 28.0013 11.1156C28.2318 10.8674 28.347 10.6547 28.347 10.4774C28.347 10.3178 28.2407 10.238 28.0279 10.238C27.8152 10.238 27.4961 10.3621 27.0706 10.6103C26.6628 10.8408 26.2019 11.222 25.6878 11.7538C24.9609 12.5161 24.3227 13.3405 23.7731 14.2269C23.2236 15.1133 22.5942 15.9465 21.8851 16.7266C21.4951 17.1698 21.1139 17.3914 20.7416 17.3914Z" fill="white"/>
<path d="M14.4167 17.5244C13.6366 17.5244 12.9807 17.3382 12.4489 16.9659C11.9347 16.5759 11.6777 16.0175 11.6777 15.2906C11.6777 14.5106 11.8638 13.7837 12.2361 13.11C12.6084 12.4364 13.1048 11.8513 13.7253 11.3549C14.3458 10.8408 15.0194 10.4419 15.7463 10.1583C16.4909 9.87465 17.2266 9.73282 17.9535 9.73282C18.6803 9.73282 19.221 9.86578 19.5756 10.1317C19.9302 10.3799 20.1074 10.6901 20.1074 11.0624C20.1074 11.417 19.939 11.7982 19.6022 12.2059C19.2831 12.5959 18.8133 12.9416 18.1928 13.243C17.8028 13.4203 17.3507 13.5798 16.8366 13.7217C16.3402 13.8458 15.9059 13.9078 15.5336 13.9078C15.2499 13.9078 15.1081 13.8635 15.1081 13.7748C15.1081 13.7039 15.2322 13.6685 15.4804 13.6685C15.7108 13.6685 16.0654 13.6064 16.5441 13.4823C17.0405 13.3405 17.5191 13.1544 17.98 12.9239C18.4942 12.6402 18.8576 12.3566 19.0703 12.0729C19.2831 11.7893 19.3894 11.5322 19.3894 11.3018C19.3894 11.089 19.3008 10.9117 19.1235 10.7699C18.964 10.6281 18.7335 10.5572 18.4321 10.5572C18.1485 10.5572 17.8294 10.637 17.4748 10.7965C16.9607 11.027 16.4288 11.4081 15.8793 11.94C15.3474 12.4541 14.9042 13.0214 14.5496 13.6419C14.1951 14.2624 14.0178 14.8563 14.0178 15.4236C14.0178 15.8136 14.1242 16.1416 14.3369 16.4075C14.5674 16.6734 14.9042 16.8064 15.3474 16.8064C15.8083 16.8064 16.3402 16.6645 16.9429 16.3809C17.5457 16.0795 18.1573 15.7161 18.7778 15.2906C19.3983 14.8474 19.9745 14.4042 20.5063 13.961C21.0382 13.5178 21.4636 13.1455 21.7827 12.8441C21.8891 12.7378 21.9689 12.6846 22.0221 12.6846C22.0753 12.6846 22.1019 12.7289 22.1019 12.8175C22.1019 12.9416 22.0487 13.048 21.9423 13.1366C21.2686 13.7571 20.5329 14.4042 19.7351 15.0779C18.9551 15.7515 18.113 16.3277 17.2089 16.8064C16.3225 17.2673 15.3917 17.5066 14.4167 17.5244Z" fill="white"/>
<path d="M6.85598 17.285C6.41278 17.285 6.05821 17.1609 5.79229 16.9127C5.54409 16.6645 5.42 16.3277 5.42 15.9022C5.42 15.6363 5.48204 15.3349 5.60614 14.9981C5.73024 14.6612 5.92525 14.3155 6.19117 13.961C6.59892 13.4114 6.98894 12.9327 7.36123 12.525C7.73353 12.0995 8.00831 11.7183 8.1856 11.3815C8.36288 11.0624 8.45152 10.8142 8.45152 10.6369C8.45152 10.371 8.29197 10.238 7.97286 10.238C7.68921 10.238 7.28146 10.3976 6.74961 10.7167C6.23549 11.0181 5.69478 11.5145 5.12748 12.2059C4.80837 12.5959 4.44494 13.0568 4.0372 13.5887C3.62945 14.1028 3.30148 14.5814 3.05328 15.0247C2.94691 15.2197 2.84054 15.4235 2.73417 15.6363C2.64553 15.8313 2.50371 16.1681 2.3087 16.6468C2.25551 16.7709 2.10482 16.9038 1.85663 17.0457C1.62616 17.1875 1.44001 17.2584 1.29819 17.2584C1.19182 17.2584 1.13863 17.2141 1.13863 17.1254C1.13863 17.0545 1.16523 16.9659 1.21841 16.8595C1.30705 16.7 1.50206 16.1947 1.80344 15.3438C2.12255 14.4928 2.52143 13.4912 3.0001 12.3388C2.73417 12.6225 2.44166 12.9327 2.12255 13.2696C1.80344 13.5887 1.44888 13.8989 1.05886 14.2003C0.987945 14.2712 0.908168 14.3067 0.819527 14.3067C0.713158 14.3067 0.659973 14.2623 0.659973 14.1737C0.659973 14.1028 0.73975 14.0053 0.899304 13.8812C1.30705 13.5266 1.7148 13.1543 2.12255 12.7643C2.5303 12.3566 2.9735 11.8513 3.45217 11.2485C3.61172 10.8585 3.89537 10.3001 4.30312 9.57323C4.71087 8.82865 5.19839 8.00428 5.7657 7.10015C6.333 6.19601 6.96235 5.29187 7.65375 4.38773C8.34515 3.48359 9.05428 2.67696 9.78113 1.96783C10.4371 1.32962 11.1196 0.84209 11.8287 0.505253C12.5556 0.168418 13.2115 0 13.7966 0C14.3107 0 14.7273 0.124098 15.0464 0.372293C15.3655 0.620487 15.5251 1.01937 15.5251 1.56895C15.5251 2.11852 15.3744 2.70355 15.073 3.32404C14.7716 3.94453 14.4525 4.44092 14.1157 4.81321C13.3534 5.66416 12.4492 6.4442 11.4033 7.15333C10.375 7.86246 9.29361 8.46522 8.159 8.96161C8.12355 8.97934 8.08809 8.99706 8.05263 9.01479C8.01718 9.01479 7.98172 9.01479 7.94626 9.01479C7.82217 9.01479 7.76012 8.97047 7.76012 8.88183C7.76012 8.77546 7.85762 8.68682 8.05263 8.61591C8.72631 8.31453 9.40884 7.94224 10.1002 7.49903C10.8094 7.05583 11.4653 6.57716 12.0681 6.06305C12.6708 5.54893 13.1761 5.03481 13.5838 4.52069C14.0625 3.91793 14.3727 3.43041 14.5146 3.05812C14.6564 2.66809 14.7273 2.34012 14.7273 2.0742C14.7273 1.71964 14.5323 1.54235 14.1423 1.54235C13.965 1.54235 13.7079 1.631 13.3711 1.80828C13.0343 1.96783 12.6354 2.23375 12.1744 2.60605C11.4653 3.17335 10.7296 3.86475 9.96728 4.68025C9.2227 5.49574 8.48698 6.38215 7.76012 7.33948C7.05099 8.2968 6.37732 9.27185 5.7391 10.2646C5.10089 11.2574 4.52472 12.2236 4.0106 13.1632C4.22334 12.8618 4.44494 12.5604 4.67541 12.2591C4.90588 11.9399 5.13634 11.6563 5.36681 11.4081C5.89866 10.8231 6.42164 10.3976 6.93576 10.1317C7.44988 9.86575 7.91081 9.73278 8.31856 9.73278C8.77949 9.73278 9.15178 9.87461 9.43543 10.1583C9.71909 10.4242 9.86091 10.7876 9.86091 11.2485C9.86091 11.4967 9.81659 11.7449 9.72795 11.9931C9.65704 12.2236 9.5684 12.4363 9.46203 12.6313C9.3202 12.9327 9.13405 13.2873 8.90359 13.695C8.67312 14.1028 8.45152 14.4839 8.23878 14.8385C7.83103 15.4945 7.62716 15.9642 7.62716 16.2479C7.62716 16.4075 7.69807 16.4872 7.8399 16.4872C8.01718 16.4872 8.30969 16.3631 8.71744 16.1149C9.03655 15.9199 9.39111 15.6717 9.78113 15.3704C10.1889 15.0512 10.5878 14.7233 10.9778 14.3864C11.3855 14.0496 11.7312 13.7571 12.0149 13.5089C12.3163 13.243 12.5113 13.0657 12.5999 12.977C12.7063 12.8707 12.7861 12.8175 12.8392 12.8175C12.8924 12.8175 12.919 12.8441 12.919 12.8973C12.919 12.9859 12.857 13.11 12.7329 13.2696C12.2719 13.7482 11.6958 14.2889 11.0044 14.8917C10.313 15.4945 9.53294 16.0795 8.66426 16.6468C8.32742 16.8773 7.99945 17.0457 7.68034 17.152C7.37896 17.2407 7.10418 17.285 6.85598 17.285Z" fill="white"/>
</svg>
